HIERARCHY
ROOT Hips
{
	OFFSET 0 0 0
	CHANNELS 6 Xposition Yposition Zposition Yrotation Xrotation Zrotation
	JOINT Spine
	{
		OFFSET -0 8.26146 -2.63334
		CHANNELS 3 Yrotation Xrotation Zrotation
		JOINT Spine1
		{
			OFFSET -0 8.45076 0
			CHANNELS 3 Yrotation Xrotation Zrotation
			JOINT Spine2
			{
				OFFSET -0 8.45076 0
				CHANNELS 3 Yrotation Xrotation Zrotation
				JOINT Spine3
				{
					OFFSET -0 8.45076 0
					CHANNELS 3 Yrotation Xrotation Zrotation
					JOINT Neck
					{
						OFFSET -0 15.8135 3.63334
						CHANNELS 3 Yrotation Xrotation Zrotation
						JOINT Head
						{
							OFFSET -0 10.3268 0
							CHANNELS 3 Yrotation Xrotation Zrotation
							End Site
							{
								OFFSET 0 15 0
							}
						}
					}
					JOINT LeftShoulder
					{
						OFFSET 1.72114 4.79122 3.44228
						CHANNELS 3 Yrotation Xrotation Zrotation
						JOINT LeftArm
						{
							OFFSET 15.5839 0 0
							CHANNELS 3 Yrotation Xrotation Zrotation
							JOINT LeftForeArm
							{
								OFFSET 25.8212 0 0
								CHANNELS 3 Yrotation Xrotation Zrotation
								JOINT LeftHand
								{
									OFFSET 22.2052 0 0
									CHANNELS 3 Yrotation Xrotation Zrotation
									End Site
									{
										OFFSET 15 0 0
									}
								}
							}
						}
					}
					JOINT RightShoulder
					{
						OFFSET -1.72114 4.79122 3.44228
						CHANNELS 3 Yrotation Xrotation Zrotation
						JOINT RightArm
						{
							OFFSET -15.5839 0 0
							CHANNELS 3 Yrotation Xrotation Zrotation
							JOINT RightForeArm
							{
								OFFSET -25.8212 0 0
								CHANNELS 3 Yrotation Xrotation Zrotation
								JOINT RightHand
								{
									OFFSET -22.2052 0 0
									CHANNELS 3 Yrotation Xrotation Zrotation
									End Site
									{
										OFFSET -15 0 0
									}
								}
							}
						}
					}
				}
			}
		}
	}
	JOINT LeftUpLeg
	{
		OFFSET 10.3268 -3.44228 2
		CHANNELS 3 Yrotation Xrotation Zrotation
		JOINT LeftLeg
		{
			OFFSET -0 -42.4424 2.40959
			CHANNELS 3 Yrotation Xrotation Zrotation
			JOINT LeftFoot
			{
				OFFSET -0 -37.8309 -2.40959
				CHANNELS 3 Yrotation Xrotation Zrotation
				JOINT LeftToeBase
				{
					OFFSET -0 -6.64531 15.4902
					CHANNELS 3 Yrotation Xrotation Zrotation
					End Site
					{
						OFFSET 0 0 5
					}
				}
			}
		}
	}
	JOINT RightUpLeg
	{
		OFFSET -10.3268 -3.44228 2
		CHANNELS 3 Yrotation Xrotation Zrotation
		JOINT RightLeg
		{
			OFFSET -0 -42.4424 2.40959
			CHANNELS 3 Yrotation Xrotation Zrotation
			JOINT RightFoot
			{
				OFFSET -0 -37.8309 -2.40959
				CHANNELS 3 Yrotation Xrotation Zrotation
				JOINT RightToeBase
				{
					OFFSET -0 -6.64531 15.4902
					CHANNELS 3 Yrotation Xrotation Zrotation
					End Site
					{
						OFFSET 0 0 5
					}
				}
			}
		}
	}
}
MOTION
Frames: 7
Frame Time: 0.00833333
0 94.073504 0 0 0 0 0 0 0 0 0 0 0 0 0 0 0 0 0 0 0 0 0 0 0 0 0 0 0 0 0 0 0 0 0 0 0 0 0 0 0 0 0 0 0 0 0 0 0 0 0 0 0 0 0 0 0 0 0 0 0 0 0 0 0 0 0 0 0 0 0 0
111.733569 93.185590 245.995972 -1.037746 0.312156 -0.565423 -0.239381 -0.110912 0.463893 -0.122638 0.209551 0.328781 0.179100 0.463761 0.156222 0.292543 0.718909 0.070049 -16.505954 -0.687186 -9.808199 -5.487188 7.330307 22.557731 7.235070 0.161604 -4.971833 -39.846594 7.733425 -80.424625 -14.743124 2.137921 17.031182 -4.325859 -10.410020 -0.443523 -8.290807 3.700087 1.689897 43.120525 6.794986 81.528411 20.848077 -0.472749 -14.995894 8.326869 -1.711075 -0.790705 11.141785 4.274483 1.653449 0.000000 2.901393 0.000000 -5.663443 -4.918891 5.390370 0.000000 -3.853373 0.000000 -4.617688 4.764671 2.604331 0.000000 2.858055 0.000000 -0.272735 -3.675768 -4.675656 0.000000 -3.724360 0.000000
111.734119 93.185681 246.003882 -1.042380 0.313587 -0.562284 -0.232321 -0.131033 0.455239 -0.117774 0.231355 0.327951 0.169367 0.455285 0.161658 0.281907 0.721123 0.075728 -16.516297 -0.649131 -9.772635 -5.502756 7.275041 22.485893 7.253485 0.179151 -4.971781 -39.798472 7.708484 -80.403379 -14.753016 2.152184 17.002024 -4.304075 -10.383473 -0.444616 -8.276259 3.702856 1.690066 43.151477 6.826941 81.523585 20.869674 -0.437348 -14.987895 8.249382 -1.744035 -0.863791 11.139212 4.275421 1.649987 0.000000 2.911991 0.000000 -5.666837 -4.929917 5.407901 0.000000 -3.872858 0.000000 -4.607100 4.768107 2.603960 0.000000 2.859713 0.000000 -0.288721 -3.680777 -4.666886 0.000000 -3.732926 0.000000
111.737366 93.186420 246.008252 -1.038664 0.313912 -0.563145 -0.240814 -0.132524 0.466444 -0.125562 0.233934 0.331302 0.169703 0.454451 0.155303 0.283047 0.718456 0.066961 -16.526272 -0.659310 -9.791235 -5.498103 7.309013 22.513668 7.262026 0.178951 -4.998276 -39.892378 7.773496 -80.396385 -14.774226 2.097003 17.050007 -4.277374 -10.380239 -0.535186 -8.266883 3.701663 1.702327 43.123449 6.837022 81.518694 20.869044 -0.409231 -14.971550 8.264960 -1.704346 -0.905462 11.128453 4.276719 1.652127 0.000000 2.915237 0.000000 -5.655519 -4.933031 5.391501 0.000000 -3.832005 0.000000 -4.619615 4.768056 2.604317 0.000000 2.866590 0.000000 -0.285584 -3.677460 -4.698427 0.000000 -3.760554 0.000000
111.739172 93.185516 246.010449 -1.047707 0.316481 -0.555214 -0.230566 -0.121248 0.459368 -0.114480 0.203229 0.326163 0.168873 0.472468 0.158576 0.280423 0.731808 0.073418 -16.541885 -0.653600 -9.755234 -5.514764 7.282863 22.468636 7.270771 0.165849 -4.982082 -39.810132 7.717764 -80.397419 -14.762735 2.087363 17.015836 -4.304678 -10.320500 -0.521029 -8.283617 3.720860 1.697155 43.086617 6.803560 81.479066 20.855063 -0.409480 -14.947144 8.273120 -1.729650 -0.810147 11.139662 4.273325 1.643946 0.000000 2.919949 0.000000 -5.664408 -4.918344 5.388500 0.000000 -3.899294 0.000000 -4.599709 4.772216 2.596187 0.000000 2.852511 0.000000 -0.288926 -3.676337 -4.715079 0.000000 -3.732441 0.000000
111.742480 93.185577 246.018359 -1.046136 0.319331 -0.561279 -0.229504 -0.132155 0.474143 -0.113418 0.194294 0.333560 0.174751 0.481406 0.154623 0.286479 0.733379 0.065998 -16.549004 -0.645123 -9.813807 -5.502054 7.307880 22.567288 7.240915 0.178738 -5.008976 -39.810663 7.741321 -80.381613 -14.768192 2.105656 17.040152 -4.285364 -10.342124 -0.541976 -8.292634 3.694524 1.691060 43.084163 6.848650 81.515276 20.877238 -0.335961 -14.951631 8.157346 -1.831598 -0.832853 11.141662 4.277915 1.647363 0.000000 2.918737 0.000000 -5.672075 -4.949707 5.408897 0.000000 -3.800248 0.000000 -4.576299 4.769810 2.599765 0.000000 2.862476 0.000000 -0.299838 -3.692026 -4.686956 0.000000 -3.709201 0.000000
111.740857 93.181976 246.019727 -1.038443 0.322113 -0.555500 -0.240193 -0.148363 0.462575 -0.125801 0.223802 0.328529 0.183238 0.466945 0.157063 0.293605 0.724628 0.071572 -16.545753 -0.611464 -9.812892 -5.503168 7.270304 22.564780 7.243226 0.184528 -4.995675 -39.846449 7.744221 -80.391185 -14.767115 2.092403 17.048601 -4.284949 -10.373927 -0.534585 -8.274139 3.707350 1.687692 43.100215 6.859765 81.524029 20.902018 -0.368560 -14.959492 8.114151 -1.716317 -0.936954 11.145838 4.274564 1.641798 0.000000 2.918301 0.000000 -5.682927 -4.941849 5.421970 0.000000 -3.902815 0.000000 -4.564402 4.774625 2.596728 0.000000 2.845322 0.000000 -0.319421 -3.696450 -4.706639 0.000000 -3.667194 0.000000
